<?xml version="1.0" encoding="UTF-8" standalone="no"?>
<!DOCTYPE svg PUBLIC "-//W3C//DTD SVG 1.1//EN"
 "http://www.w3.org/Graphics/SVG/1.1/DTD/svg11.dtd">
<!-- Generated by graphviz version 12.1.2 (0)
 -->
<!-- Pages: 1 -->
<svg width="1322pt" height="404pt"
 viewBox="0.00 0.00 1321.91 404.00" xmlns="http://www.w3.org/2000/svg" xmlns:xlink="http://www.w3.org/1999/xlink">
<g id="graph0" class="graph" transform="scale(1 1) rotate(0) translate(4 400)">
<polygon fill="white" stroke="none" points="-4,4 -4,-400 1317.91,-400 1317.91,4 -4,4"/>
<!-- [root] @webcrack/eslint&#45;config#topo&#45;typecheck -->
<g id="node1" class="node">
<title>[root] @webcrack/eslint&#45;config#topo&#45;typecheck</title>
<ellipse fill="none" stroke="black" cx="294.95" cy="-90" rx="189.03" ry="18"/>
<text text-anchor="middle" x="294.95" y="-84.95" font-family="Times,serif" font-size="14.00">[root] @webcrack/eslint&#45;config#topo&#45;typecheck</text>
</g>
<!-- [root] ___ROOT___ -->
<g id="node2" class="node">
<title>[root] ___ROOT___</title>
<ellipse fill="none" stroke="black" cx="500.95" cy="-18" rx="87.18" ry="18"/>
<text text-anchor="middle" x="500.95" y="-12.95" font-family="Times,serif" font-size="14.00">[root] ___ROOT___</text>
</g>
<!-- [root] @webcrack/eslint&#45;config#topo&#45;typecheck&#45;&gt;[root] ___ROOT___ -->
<g id="edge1" class="edge">
<title>[root] @webcrack/eslint&#45;config#topo&#45;typecheck&#45;&gt;[root] ___ROOT___</title>
<path fill="none" stroke="black" d="M344.29,-72.23C374.96,-61.81 414.43,-48.4 446.08,-37.65"/>
<polygon fill="black" stroke="black" points="447.14,-40.98 455.48,-34.45 444.89,-34.35 447.14,-40.98"/>
</g>
<!-- [root] @webcrack/eslint&#45;config#typecheck -->
<g id="node3" class="node">
<title>[root] @webcrack/eslint&#45;config#typecheck</title>
<ellipse fill="none" stroke="black" cx="191.95" cy="-162" rx="169.58" ry="18"/>
<text text-anchor="middle" x="191.95" y="-156.95" font-family="Times,serif" font-size="14.00">[root] @webcrack/eslint&#45;config#typecheck</text>
</g>
<!-- [root] @webcrack/eslint&#45;config#typecheck&#45;&gt;[root] @webcrack/eslint&#45;config#topo&#45;typecheck -->
<g id="edge2" class="edge">
<title>[root] @webcrack/eslint&#45;config#typecheck&#45;&gt;[root] @webcrack/eslint&#45;config#topo&#45;typecheck</title>
<path fill="none" stroke="black" d="M217.15,-143.88C230.12,-135.06 246.13,-124.18 260.25,-114.59"/>
<polygon fill="black" stroke="black" points="262.1,-117.56 268.41,-109.04 258.17,-111.77 262.1,-117.56"/>
</g>
<!-- [root] @webcrack/typescript&#45;config#topo&#45;typecheck -->
<g id="node4" class="node">
<title>[root] @webcrack/typescript&#45;config#topo&#45;typecheck</title>
<ellipse fill="none" stroke="black" cx="706.95" cy="-90" rx="205.41" ry="18"/>
<text text-anchor="middle" x="706.95" y="-84.95" font-family="Times,serif" font-size="14.00">[root] @webcrack/typescript&#45;config#topo&#45;typecheck</text>
</g>
<!-- [root] @webcrack/typescript&#45;config#topo&#45;typecheck&#45;&gt;[root] ___ROOT___ -->
<g id="edge3" class="edge">
<title>[root] @webcrack/typescript&#45;config#topo&#45;typecheck&#45;&gt;[root] ___ROOT___</title>
<path fill="none" stroke="black" d="M657.09,-72.05C626.41,-61.63 587.07,-48.26 555.56,-37.56"/>
<polygon fill="black" stroke="black" points="556.79,-34.28 546.2,-34.38 554.54,-40.91 556.79,-34.28"/>
</g>
<!-- [root] @webcrack/typescript&#45;config#typecheck -->
<g id="node5" class="node">
<title>[root] @webcrack/typescript&#45;config#typecheck</title>
<ellipse fill="none" stroke="black" cx="1127.95" cy="-162" rx="185.96" ry="18"/>
<text text-anchor="middle" x="1127.95" y="-156.95" font-family="Times,serif" font-size="14.00">[root] @webcrack/typescript&#45;config#typecheck</text>
</g>
<!-- [root] @webcrack/typescript&#45;config#typecheck&#45;&gt;[root] @webcrack/typescript&#45;config#topo&#45;typecheck -->
<g id="edge4" class="edge">
<title>[root] @webcrack/typescript&#45;config#typecheck&#45;&gt;[root] @webcrack/typescript&#45;config#topo&#45;typecheck</title>
<path fill="none" stroke="black" d="M1037.12,-145.9C970.58,-134.83 880.15,-119.8 810.75,-108.26"/>
<polygon fill="black" stroke="black" points="811.74,-104.87 801.3,-106.69 810.59,-111.78 811.74,-104.87"/>
</g>
<!-- [root] docs#topo&#45;typecheck -->
<g id="node6" class="node">
<title>[root] docs#topo&#45;typecheck</title>
<ellipse fill="none" stroke="black" cx="810.95" cy="-162" rx="112.77" ry="18"/>
<text text-anchor="middle" x="810.95" y="-156.95" font-family="Times,serif" font-size="14.00">[root] docs#topo&#45;typecheck</text>
</g>
<!-- [root] docs#topo&#45;typecheck&#45;&gt;[root] @webcrack/eslint&#45;config#topo&#45;typecheck -->
<g id="edge5" class="edge">
<title>[root] docs#topo&#45;typecheck&#45;&gt;[root] @webcrack/eslint&#45;config#topo&#45;typecheck</title>
<path fill="none" stroke="black" d="M728.27,-149.42C715.12,-147.6 701.66,-145.74 688.95,-144 596.4,-131.33 491.59,-117.24 413.34,-106.78"/>
<polygon fill="black" stroke="black" points="413.87,-103.32 403.49,-105.46 412.94,-110.25 413.87,-103.32"/>
</g>
<!-- [root] docs#topo&#45;typecheck&#45;&gt;[root] @webcrack/typescript&#45;config#topo&#45;typecheck -->
<g id="edge6" class="edge">
<title>[root] docs#topo&#45;typecheck&#45;&gt;[root] @webcrack/typescript&#45;config#topo&#45;typecheck</title>
<path fill="none" stroke="black" d="M785.78,-144.05C772.69,-135.24 756.47,-124.33 742.16,-114.7"/>
<polygon fill="black" stroke="black" points="744.12,-111.8 733.87,-109.12 740.22,-117.61 744.12,-111.8"/>
</g>
<!-- [root] docs#typecheck -->
<g id="node7" class="node">
<title>[root] docs#typecheck</title>
<ellipse fill="none" stroke="black" cx="790.95" cy="-234" rx="93.32" ry="18"/>
<text text-anchor="middle" x="790.95" y="-228.95" font-family="Times,serif" font-size="14.00">[root] docs#typecheck</text>
</g>
<!-- [root] docs#typecheck&#45;&gt;[root] docs#topo&#45;typecheck -->
<g id="edge7" class="edge">
<title>[root] docs#typecheck&#45;&gt;[root] docs#topo&#45;typecheck</title>
<path fill="none" stroke="black" d="M795.9,-215.7C798.03,-208.24 800.57,-199.32 802.96,-190.97"/>
<polygon fill="black" stroke="black" points="806.27,-192.14 805.65,-181.56 799.54,-190.21 806.27,-192.14"/>
</g>
<!-- [root] playground#topo&#45;typecheck -->
<g id="node8" class="node">
<title>[root] playground#topo&#45;typecheck</title>
<ellipse fill="none" stroke="black" cx="299.95" cy="-234" rx="137.85" ry="18"/>
<text text-anchor="middle" x="299.95" y="-228.95" font-family="Times,serif" font-size="14.00">[root] playground#topo&#45;typecheck</text>
</g>
<!-- [root] playground#topo&#45;typecheck&#45;&gt;[root] @webcrack/eslint&#45;config#topo&#45;typecheck -->
<g id="edge8" class="edge">
<title>[root] playground#topo&#45;typecheck&#45;&gt;[root] @webcrack/eslint&#45;config#topo&#45;typecheck</title>
<path fill="none" stroke="black" d="M176.68,-225.68C108.84,-218.79 34.18,-205.51 12.95,-180 -27.11,-131.86 35.05,-109.39 111.11,-99.06"/>
<polygon fill="black" stroke="black" points="111.44,-102.54 120.92,-97.81 110.56,-95.6 111.44,-102.54"/>
</g>
<!-- [root] playground#topo&#45;typecheck&#45;&gt;[root] @webcrack/typescript&#45;config#topo&#45;typecheck -->
<g id="edge9" class="edge">
<title>[root] playground#topo&#45;typecheck&#45;&gt;[root] @webcrack/typescript&#45;config#topo&#45;typecheck</title>
<path fill="none" stroke="black" d="M324.16,-216.01C338.14,-205.93 355.89,-192.68 370.95,-180 388.75,-165.02 388.18,-154.48 408.95,-144 448.34,-124.13 493.93,-111.6 537.43,-103.72"/>
<polygon fill="black" stroke="black" points="537.99,-107.18 547.25,-102.02 536.8,-100.28 537.99,-107.18"/>
</g>
<!-- [root] webcrack#topo&#45;typecheck -->
<g id="node9" class="node">
<title>[root] webcrack#topo&#45;typecheck</title>
<ellipse fill="none" stroke="black" cx="548.95" cy="-162" rx="131.19" ry="18"/>
<text text-anchor="middle" x="548.95" y="-156.95" font-family="Times,serif" font-size="14.00">[root] webcrack#topo&#45;typecheck</text>
</g>
<!-- [root] playground#topo&#45;typecheck&#45;&gt;[root] webcrack#topo&#45;typecheck -->
<g id="edge10" class="edge">
<title>[root] playground#topo&#45;typecheck&#45;&gt;[root] webcrack#topo&#45;typecheck</title>
<path fill="none" stroke="black" d="M356.45,-217.12C393.75,-206.63 442.8,-192.84 482.05,-181.81"/>
<polygon fill="black" stroke="black" points="482.97,-185.19 491.65,-179.11 481.07,-178.45 482.97,-185.19"/>
</g>
<!-- [root] webcrack#topo&#45;typecheck&#45;&gt;[root] @webcrack/eslint&#45;config#topo&#45;typecheck -->
<g id="edge15" class="edge">
<title>[root] webcrack#topo&#45;typecheck&#45;&gt;[root] @webcrack/eslint&#45;config#topo&#45;typecheck</title>
<path fill="none" stroke="black" d="M492.27,-145.38C454.85,-135.06 405.53,-121.47 365.57,-110.46"/>
<polygon fill="black" stroke="black" points="366.59,-107.11 356.02,-107.83 364.73,-113.86 366.59,-107.11"/>
</g>
<!-- [root] webcrack#topo&#45;typecheck&#45;&gt;[root] @webcrack/typescript&#45;config#topo&#45;typecheck -->
<g id="edge16" class="edge">
<title>[root] webcrack#topo&#45;typecheck&#45;&gt;[root] @webcrack/typescript&#45;config#topo&#45;typecheck</title>
<path fill="none" stroke="black" d="M586.4,-144.41C607.84,-134.91 635,-122.88 658.11,-112.64"/>
<polygon fill="black" stroke="black" points="659.29,-115.94 667.02,-108.69 656.46,-109.54 659.29,-115.94"/>
</g>
<!-- [root] playground#typecheck -->
<g id="node10" class="node">
<title>[root] playground#typecheck</title>
<ellipse fill="none" stroke="black" cx="299.95" cy="-306" rx="118.4" ry="18"/>
<text text-anchor="middle" x="299.95" y="-300.95" font-family="Times,serif" font-size="14.00">[root] playground#typecheck</text>
</g>
<!-- [root] playground#typecheck&#45;&gt;[root] playground#topo&#45;typecheck -->
<g id="edge11" class="edge">
<title>[root] playground#typecheck&#45;&gt;[root] playground#topo&#45;typecheck</title>
<path fill="none" stroke="black" d="M299.95,-287.7C299.95,-280.41 299.95,-271.73 299.95,-263.54"/>
<polygon fill="black" stroke="black" points="303.45,-263.62 299.95,-253.62 296.45,-263.62 303.45,-263.62"/>
</g>
<!-- [root] web#topo&#45;typecheck -->
<g id="node11" class="node">
<title>[root] web#topo&#45;typecheck</title>
<ellipse fill="none" stroke="black" cx="729.95" cy="-306" rx="111.23" ry="18"/>
<text text-anchor="middle" x="729.95" y="-300.95" font-family="Times,serif" font-size="14.00">[root] web#topo&#45;typecheck</text>
</g>
<!-- [root] web#topo&#45;typecheck&#45;&gt;[root] docs#topo&#45;typecheck -->
<g id="edge12" class="edge">
<title>[root] web#topo&#45;typecheck&#45;&gt;[root] docs#topo&#45;typecheck</title>
<path fill="none" stroke="black" d="M822.13,-295.74C849.33,-288.21 876.25,-274.99 892.95,-252 902.36,-239.05 900.6,-230.05 892.95,-216 885.85,-202.95 874,-192.62 861.48,-184.68"/>
<polygon fill="black" stroke="black" points="863.56,-181.84 853.15,-179.83 860.03,-187.89 863.56,-181.84"/>
</g>
<!-- [root] web#topo&#45;typecheck&#45;&gt;[root] playground#topo&#45;typecheck -->
<g id="edge13" class="edge">
<title>[root] web#topo&#45;typecheck&#45;&gt;[root] playground#topo&#45;typecheck</title>
<path fill="none" stroke="black" d="M653.57,-292.57C581.34,-280.81 472.73,-263.13 394.95,-250.46"/>
<polygon fill="black" stroke="black" points="395.63,-247.03 385.2,-248.88 394.51,-253.94 395.63,-247.03"/>
</g>
<!-- [root] web#typecheck -->
<g id="node12" class="node">
<title>[root] web#typecheck</title>
<ellipse fill="none" stroke="black" cx="729.95" cy="-378" rx="91.78" ry="18"/>
<text text-anchor="middle" x="729.95" y="-372.95" font-family="Times,serif" font-size="14.00">[root] web#typecheck</text>
</g>
<!-- [root] web#typecheck&#45;&gt;[root] web#topo&#45;typecheck -->
<g id="edge14" class="edge">
<title>[root] web#typecheck&#45;&gt;[root] web#topo&#45;typecheck</title>
<path fill="none" stroke="black" d="M729.95,-359.7C729.95,-352.41 729.95,-343.73 729.95,-335.54"/>
<polygon fill="black" stroke="black" points="733.45,-335.62 729.95,-325.62 726.45,-335.62 733.45,-335.62"/>
</g>
<!-- [root] webcrack#typecheck -->
<g id="node13" class="node">
<title>[root] webcrack#typecheck</title>
<ellipse fill="none" stroke="black" cx="567.95" cy="-234" rx="111.74" ry="18"/>
<text text-anchor="middle" x="567.95" y="-228.95" font-family="Times,serif" font-size="14.00">[root] webcrack#typecheck</text>
</g>
<!-- [root] webcrack#typecheck&#45;&gt;[root] webcrack#topo&#45;typecheck -->
<g id="edge17" class="edge">
<title>[root] webcrack#typecheck&#45;&gt;[root] webcrack#topo&#45;typecheck</title>
<path fill="none" stroke="black" d="M563.26,-215.7C561.23,-208.24 558.81,-199.32 556.54,-190.97"/>
<polygon fill="black" stroke="black" points="559.99,-190.3 553.99,-181.57 553.23,-192.13 559.99,-190.3"/>
</g>
</g>
</svg>
